<?xml version="1.0" encoding="UTF-8" standalone="no"?>
<svg width="15px" height="15px" viewBox="0 0 15 15" version="1.1" xmlns="http://www.w3.org/2000/svg" xmlns:xlink="http://www.w3.org/1999/xlink">
    <!-- Generator: Sketch 39.1 (31720) - http://www.bohemiancoding.com/sketch -->
    <title>ADD</title>
    <desc>Created with Sketch.</desc>
    <defs></defs>
    <g id="App-v.1" stroke="none" stroke-width="1" fill="none" fill-rule="evenodd">
        <g id="Dashboard" transform="translate(-187.000000, -25.000000)" fill="#FFFFFF">
            <g id="Servers">
                <g id="First">
                    <path d="M194.5,40 C190.357,40 187,36.643 187,32.5 C187,28.358 190.357,25 194.5,25 C198.643,25 202,28.358 202,32.5 C202,36.643 198.643,40 194.5,40 L194.5,40 Z M194.5,26 C190.91,26 188,28.911 188,32.5 C188,36.09 190.91,39.001 194.5,39.001 C198.09,39.001 200.999,36.09 200.999,32.5 C200.999,28.911 198.09,26 194.5,26 L194.5,26 Z M197.477,32.988 L194.989,32.988 L194.989,35.477 C194.989,35.764 194.77,35.998 194.501,35.998 C194.232,35.998 194.013,35.765 194.013,35.477 L194.013,32.988 L191.524,32.988 C191.237,32.988 191.003,32.77 191.003,32.5 C191.003,32.23 191.236,32.012 191.524,32.012 L194.013,32.012 L194.013,29.524 C194.013,29.237 194.232,29.003 194.501,29.003 C194.77,29.003 194.989,29.236 194.989,29.524 L194.989,32.012 L197.477,32.012 C197.765,32.012 197.998,32.231 197.998,32.5 C197.998,32.771 197.765,32.988 197.477,32.988 L197.477,32.988 Z" id="ADD"></path>
                </g>
            </g>
        </g>
    </g>
</svg>