<?xml version="1.0" encoding="UTF-8" standalone="no"?>
<svg
   xmlns:dc="http://purl.org/dc/elements/1.1/"
   xmlns:cc="http://creativecommons.org/ns#"
   xmlns:rdf="http://www.w3.org/1999/02/22-rdf-syntax-ns#"
   xmlns:svg="http://www.w3.org/2000/svg"
   xmlns="http://www.w3.org/2000/svg"
   xmlns:sodipodi="http://sodipodi.sourceforge.net/DTD/sodipodi-0.dtd"
   xmlns:inkscape="http://www.inkscape.org/namespaces/inkscape"
   width="256px"
   height="54px"
   viewBox="0 0 256 54"
   version="1.1"
   id="svg2"
   inkscape:version="0.91 r13725"
   sodipodi:docname="logo_dark.svg">
  <metadata
     id="metadata29">
    <rdf:RDF>
      <cc:Work
         rdf:about="">
        <dc:format>image/svg+xml</dc:format>
        <dc:type
           rdf:resource="http://purl.org/dc/dcmitype/StillImage" />
        <dc:title>Trailbot</dc:title>
      </cc:Work>
    </rdf:RDF>
  </metadata>
  <sodipodi:namedview
     pagecolor="#ffffff"
     bordercolor="#666666"
     borderopacity="1"
     objecttolerance="10"
     gridtolerance="10"
     guidetolerance="10"
     inkscape:pageopacity="0"
     inkscape:pageshadow="2"
     inkscape:window-width="2560"
     inkscape:window-height="1389"
     id="namedview27"
     showgrid="false"
     inkscape:zoom="5.2480581"
     inkscape:cx="115.15528"
     inkscape:cy="61.492263"
     inkscape:window-x="0"
     inkscape:window-y="25"
     inkscape:window-maximized="1"
     inkscape:current-layer="svg2" />
  <!-- Generator: Sketch 39.1 (31720) - http://www.bohemiancoding.com/sketch -->
  <title
     id="title4">Trailbot</title>
  <desc
     id="desc6">Created with Sketch.</desc>
  <defs
     id="defs8" />
  <g
     id="g4236">
    <g
       id="g4223">
      <g
         id="g4216">
        <rect
           ry="1.75"
           id="Rectangle-7"
           x="0"
           y="16.727272"
           width="21.00074"
           height="3.5"
           rx="1.75"
           style="fill:#d8d8d8;fill-rule:evenodd;stroke:none;stroke-width:1" />
        <rect
           id="rect16"
           x="0"
           y="5.727273"
           width="24"
           height="3.5"
           rx="1.75"
           style="fill:#d8d8d8;fill-rule:evenodd;stroke:none;stroke-width:1" />
        <rect
           id="rect18"
           x="0"
           y="38.789978"
           width="39.382572"
           height="3.5"
           rx="1.7500001"
           style="fill:#d8d8d8;fill-rule:evenodd;stroke:none;stroke-width:1"
           ry="1.75" />
        <rect
           id="Rectangle-7-Copy"
           x="0"
           y="27.76001"
           width="25"
           height="3.5"
           rx="1.75"
           style="fill:#d8d8d8;fill-rule:evenodd;stroke:none;stroke-width:1" />
        <rect
           id="rect21"
           x="0"
           y="49.848484"
           width="70"
           height="3.5"
           rx="1.75"
           style="fill:#d8d8d8;fill-rule:evenodd;stroke:none;stroke-width:1" />
      </g>
      <path
         style="color:#000000;font-style:normal;font-variant:normal;font-weight:normal;font-stretch:normal;font-size:medium;line-height:normal;font-family:sans-serif;text-indent:0;text-align:start;text-decoration:none;text-decoration-line:none;text-decoration-style:solid;text-decoration-color:#000000;letter-spacing:normal;word-spacing:normal;text-transform:none;direction:ltr;block-progression:tb;writing-mode:lr-tb;baseline-shift:baseline;text-anchor:start;white-space:normal;clip-rule:nonzero;display:inline;overflow:visible;visibility:visible;opacity:1;isolation:auto;mix-blend-mode:normal;color-interpolation:sRGB;color-interpolation-filters:linearRGB;solid-color:#000000;solid-opacity:1;fill:#f37e83;fill-opacity:1;fill-rule:evenodd;stroke:none;stroke-width:3;stroke-linecap:butt;stroke-linejoin:miter;stroke-miterlimit:4;stroke-dasharray:none;stroke-dashoffset:0;stroke-opacity:1;color-rendering:auto;image-rendering:auto;shape-rendering:auto;text-rendering:auto;enable-background:accumulate"
         d="M 48.400391 0.80078125 C 39.857744 0.80078125 32.900391 7.7581348 32.900391 16.300781 C 32.900391 24.843428 39.857744 31.800781 48.400391 31.800781 C 52.039272 31.800781 55.382873 30.529501 58.03125 28.419922 L 70.552734 39.697266 L 72.560547 37.466797 L 60.191406 26.332031 C 62.49846 23.625016 63.900391 20.125432 63.900391 16.300781 C 63.900391 7.7581348 56.943037 0.80078125 48.400391 0.80078125 z M 48.400391 3.8007812 C 55.321717 3.8007813 60.900391 9.3794552 60.900391 16.300781 C 60.900391 23.222108 55.321717 28.800781 48.400391 28.800781 C 41.479064 28.800781 35.900391 23.222108 35.900391 16.300781 C 35.900391 9.3794552 41.479064 3.8007813 48.400391 3.8007812 z "
         id="Oval-3" />
    </g>
    <g
       id="g4232">
      <path
         d="m 101.63,21.06 -6.51,0 0,-3.3 16.8,0 0,3.3 -6.51,0 0,17.94 -3.78,0 0,-17.94 z m 15.47727,-3.3 7.38,0 c 1.00001,0 1.97,0.104999 2.91,0.315 0.94001,0.210001 1.775,0.554998 2.505,1.035 0.73001,0.480002 1.315,1.109996 1.755,1.89 0.44,0.780004 0.66,1.729994 0.66,2.85 0,1.540008 -0.43499,2.794995 -1.305,3.765 -0.87,0.970005 -2.05499,1.624998 -3.555,1.965 l 5.67,9.42 -4.56,0 -4.92,-9 -2.76,0 0,9 -3.78,0 0,-21.24 z m 6.87,9.15 c 0.54001,0 1.08,-0.04 1.62,-0.12 0.54001,-0.08 1.025,-0.229999 1.455,-0.45 0.43001,-0.220001 0.785,-0.534998 1.065,-0.945 0.28,-0.410002 0.42,-0.934997 0.42,-1.575 0,-0.580003 -0.13,-1.054998 -0.39,-1.425 -0.26,-0.370002 -0.58999,-0.664999 -0.99,-0.885 -0.4,-0.220001 -0.85499,-0.37 -1.365,-0.45 -0.51,-0.08 -1.005,-0.12 -1.485,-0.12 l -3.42,0 0,5.97 3.09,0 z m 21.38728,-9.15 3.27,0 9.15,21.24 -4.32,0 -1.98,-4.86 -9.21,0 -1.92,4.86 -4.23,0 9.24,-21.24 z m 4.8,13.14 -3.27,-8.64 -3.33,8.64 6.6,0 z m 12.44727,-13.14 3.78,0 0,21.24 -3.78,0 0,-21.24 z m 11.18727,0 3.78,0 0,17.88 9.03,0 0,3.36 -12.81,0 0,-21.24 z"
         id="TRAIL"
         inkscape:connector-curvature="0"
         style="fill:#ffffff;fill-rule:evenodd;stroke:none;stroke-width:1" />
      <path
         d="m 191.34,17.76 8.28,0 c 0.8,0 1.59,0.095 2.37,0.285 0.78,0.190001 1.475,0.499998 2.085,0.93 0.61,0.430002 1.105,0.984997 1.485,1.665 0.38,0.680003 0.57,1.499995 0.57,2.46 0,1.200006 -0.34,2.189996 -1.02,2.97 -0.68,0.780004 -1.56999,1.339998 -2.67,1.68 l 0,0.06 c 1.34001,0.180001 2.44,0.699996 3.3,1.56 0.86,0.860004 1.29,2.009993 1.29,3.45 0,1.160006 -0.23,2.134996 -0.69,2.925 -0.46,0.790004 -1.065,1.424998 -1.815,1.905 -0.75,0.480002 -1.61,0.824999 -2.58,1.035 C 200.97499,38.895001 199.99,39 198.99,39 l -7.65,0 0,-21.24 z m 3.78,8.64 3.36,0 c 1.26001,0 2.22,-0.249998 2.88,-0.75 0.66,-0.500002 0.99,-1.209995 0.99,-2.13 0,-0.960005 -0.34,-1.639998 -1.02,-2.04 -0.68,-0.400002 -1.73999,-0.6 -3.18,-0.6 l -3.03,0 0,5.52 z m 0,9.42 3.39,0 c 0.48,0 1,-0.035 1.56,-0.105 0.56,-0.07 1.075,-0.214999 1.545,-0.435 0.47,-0.220001 0.86,-0.539998 1.17,-0.96 0.31,-0.420002 0.465,-0.979996 0.465,-1.68 0,-1.120006 -0.38,-1.899998 -1.14,-2.34 -0.76,-0.440002 -1.90999,-0.66 -3.45,-0.66 l -3.54,0 0,6.18 z m 17.33727,-7.5 c 0,-1.700009 0.285,-3.234993 0.855,-4.605 0.57001,-1.370007 1.36,-2.534995 2.37,-3.495 1.01001,-0.960005 2.21,-1.699997 3.6,-2.22 1.39001,-0.520003 2.90499,-0.78 4.545,-0.78 1.66001,0 3.19,0.259997 4.59,0.78 1.40001,0.520003 2.61,1.259995 3.63,2.22 1.02001,0.960005 1.815,2.124993 2.385,3.495 0.57001,1.370007 0.855,2.904991 0.855,4.605 0,1.660008 -0.28499,3.174993 -0.855,4.545 -0.57,1.370007 -1.36499,2.549995 -2.385,3.54 -1.02,0.990005 -2.22999,1.759997 -3.63,2.31 -1.4,0.550003 -2.92999,0.825 -4.59,0.825 -1.64001,0 -3.15499,-0.274997 -4.545,-0.825 -1.39,-0.550003 -2.58999,-1.319995 -3.6,-2.31 -1.01,-0.990005 -1.79999,-2.169993 -2.37,-3.54 -0.57,-1.370007 -0.855,-2.884992 -0.855,-4.545 l 0,0 z m 4.11,0 c 0,1.140006 0.175,2.184995 0.525,3.135 0.35,0.950005 0.85,1.774996 1.5,2.475 0.65001,0.700003 1.42,1.244998 2.31,1.635 0.89001,0.390002 1.875,0.585 2.955,0.585 1.08001,0 2.07,-0.194998 2.97,-0.585 0.90001,-0.390002 1.675,-0.934997 2.325,-1.635 0.65001,-0.700004 1.15,-1.524995 1.5,-2.475 0.35,-0.950005 0.525,-1.994994 0.525,-3.135 0,-1.100006 -0.175,-2.119995 -0.525,-3.06 -0.35,-0.940005 -0.84499,-1.759997 -1.485,-2.46 -0.64,-0.700004 -1.40999,-1.249998 -2.31,-1.65 -0.9,-0.400002 -1.89999,-0.6 -3,-0.6 -1.1,0 -2.09499,0.199998 -2.985,0.6 -0.89,0.400002 -1.65499,0.949996 -2.295,1.65 -0.64,0.700003 -1.135,1.519995 -1.485,2.46 -0.35,0.940005 -0.525,1.959994 -0.525,3.06 l 0,0 z m 28.49728,-7.26 -6.51,0 0,-3.3 16.8,0 0,3.3 -6.51,0 0,17.94 -3.78,0 0,-17.94 z"
         id="BOT"
         inkscape:connector-curvature="0"
         style="fill:#f37e83;fill-rule:evenodd;stroke:none;stroke-width:1" />
    </g>
  </g>
</svg>
