<?xml version="1.0" encoding="UTF-8" standalone="no"?>
<svg width="100px" height="101px" viewBox="0 0 100 101" version="1.1" xmlns="http://www.w3.org/2000/svg" xmlns:xlink="http://www.w3.org/1999/xlink">
    <!-- Generator: Sketch 39.1 (31720) - http://www.bohemiancoding.com/sketch -->
    <title>rocket</title>
    <desc>Created with Sketch.</desc>
    <defs></defs>
    <g id="App-v.1" stroke="none" stroke-width="1" fill="none" fill-rule="evenodd">
        <g id="Complete---congrats" transform="translate(-670.000000, -200.000000)" fill="#FFFFFF">
            <g id="rocket" transform="translate(670.000000, 200.000000)">
                <g id="Layer_1" transform="translate(0.000000, 0.000000)">
                    <g id="Group" transform="translate(0.000000, 0.131068)">
                        <g transform="translate(0.000000, 0.000000)" id="Shape">
                            <g transform="translate(0.000000, 0.000000)">
                                <path d="M25.5981557,84.03905 L13.0987705,96.5312166 C12.2995902,97.3299092 12.2995902,98.620105 13.0987705,99.4187976 C13.5086066,99.8079042 14.0209016,100.012697 14.5536885,100.012697 C15.0659836,100.012697 15.5987705,99.8079042 15.9881148,99.4187976 L28.4875,86.9266309 C29.2866803,86.1279383 29.2866803,84.8377426 28.4875,84.03905 C27.6883197,83.2403574 26.3971311,83.2403574 25.5981557,84.03905 L25.5981557,84.03905 Z"></path>
                                <path d="M15.9879098,71.5468833 C15.1887295,70.7481907 13.8979508,70.7481907 13.0987705,71.5468833 L0.599385246,84.03905 C-0.199795082,84.8377426 -0.199795082,86.1279383 0.599385246,86.9266309 C1.00922131,87.3157376 1.52151639,87.5205305 2.05430328,87.5205305 C2.58709016,87.5205305 3.09938525,87.3157376 3.48872951,86.9266309 L15.9881148,74.4344642 C16.7870902,73.6357716 16.7870902,72.3455759 15.9879098,71.5468833 L15.9879098,71.5468833 Z"></path>
                                <path d="M99.4057377,0.668853856 C99.0163934,0.279747204 98.4836066,0.0544749313 97.9303279,0.0749542288 C97.6229508,0.0749542288 90.1643443,0.177350716 80.3491803,2.59390782 C71.2307377,4.82615125 58.3215164,9.55686897 48.5680328,19.4072063 C43.6706967,24.3017584 40.0438525,29.9538397 37.3391393,35.5037293 L12.525,35.5037293 C11.6438525,35.5037293 10.8651639,36.0771496 10.5782787,36.8963215 L4.32868852,55.6346739 C4.12377049,56.2490529 4.22622951,56.945349 4.61557377,57.4778107 C5.00491803,58.0102724 5.61967213,58.3379412 6.27540984,58.3379412 L30.270082,58.3379412 C29.2659836,64.4202926 29.2045082,68.5364266 29.2045082,68.7616988 C29.2045082,69.3146399 29.4094262,69.8471016 29.7987705,70.2362083 C30.1881148,70.6253149 30.7004098,70.8301079 31.2536885,70.8301079 L31.2741803,70.8301079 C31.4995902,70.8301079 35.6182377,70.76867 41.7038934,69.7651844 L41.7038934,93.7460322 C41.7038934,94.4013697 42.0112705,95.0157486 42.5645492,95.4048553 C42.9129098,95.6506068 43.3432377,95.7939619 43.7530738,95.7939619 C43.9784836,95.7939619 44.1834016,95.7530033 44.4088115,95.6915654 L63.1577869,89.4453797 C63.9979508,89.1586695 64.5512295,88.3804562 64.5512295,87.4998464 L64.5512295,62.6998268 C70.1043033,60.0170388 75.7596311,56.3922031 80.6569672,51.4978558 C90.5131148,41.7294357 95.2463115,28.8274783 97.479918,19.734875 C99.897541,9.92549632 100,2.47103203 100,2.16384257 C100,1.59042224 99.795082,1.05796051 99.4057377,0.668853856 L99.4057377,0.668853856 Z M31.0690574,54.2420817 L9.12356557,54.2420817 L14.0004098,39.5995888 L35.5157787,39.5995888 C33.7944672,43.7773655 32.5856557,47.7706237 31.7454918,51.231625 C31.4993852,52.2555898 31.2739754,53.2590754 31.0690574,54.2420817 L31.0690574,54.2420817 Z M60.4528689,86.0255418 L45.8020492,90.8996146 L45.8020492,68.9869711 C46.7856557,68.7821781 47.7692623,68.5569059 48.8141393,68.3111543 C52.2770492,67.4715031 56.2727459,66.2427452 60.4528689,64.5429635 L60.4528689,86.0255418 L60.4528689,86.0255418 Z M93.4840164,18.8542652 C91.3735656,27.4144068 86.9270492,39.5176716 77.767623,48.5897956 C68.6081967,57.7438368 56.4981557,62.1878443 47.9534836,64.297212 C41.642418,65.8536386 36.2737705,66.4065796 33.4461066,66.6113726 C33.9379098,59.5869736 36.6836066,37.0806352 51.4780738,22.2947872 C60.5555328,13.140746 72.6655738,8.69673847 81.2307377,6.58737083 C87.5622951,5.03094422 92.9514344,4.45752389 95.7995902,4.27321021 C95.5944672,7.11983256 95.0411885,12.505683 93.4840164,18.8542652 L93.4840164,18.8542652 Z"></path>
                                <path d="M64.6739754,25.0594924 C64.6739754,30.7527371 69.304918,35.3808535 75.0012295,35.3808535 C80.6772541,35.3808535 85.3284836,30.7525323 85.3284836,25.0594924 C85.3284836,19.3664525 80.697541,14.7381312 75.0012295,14.7381312 C69.304918,14.7381312 64.6739754,19.3662477 64.6739754,25.0594924 L64.6739754,25.0594924 Z M81.2305328,25.0594924 C81.2305328,28.4385765 78.382377,31.2851988 75.0014344,31.2851988 C71.6204918,31.2851988 68.7723361,28.4385765 68.7723361,25.0594924 C68.7723361,21.6804083 71.6204918,18.8337859 75.0014344,18.8337859 C78.3616803,18.8337859 81.2305328,21.7008876 81.2305328,25.0594924 L81.2305328,25.0594924 Z"></path>
                            </g>
                        </g>
                    </g>
                </g>
            </g>
        </g>
    </g>
</svg>