<?xml version="1.0" encoding="UTF-8" standalone="no"?>
<svg
   xmlns:dc="http://purl.org/dc/elements/1.1/"
   xmlns:cc="http://creativecommons.org/ns#"
   xmlns:rdf="http://www.w3.org/1999/02/22-rdf-syntax-ns#"
   xmlns:svg="http://www.w3.org/2000/svg"
   xmlns="http://www.w3.org/2000/svg"
   enable-background="new 0 0 32 32"
   height="24.122017"
   id="Layer_1"
   version="1.1"
   viewBox="0 0 23.638279 24.122017"
   width="23.638279"
   xml:space="preserve"><metadata
     id="metadata3398"><rdf:RDF><cc:Work
         rdf:about=""><dc:format>image/svg+xml</dc:format><dc:type
           rdf:resource="http://purl.org/dc/dcmitype/StillImage" /><dc:title></dc:title></cc:Work></rdf:RDF></metadata><defs
     id="defs3396" /><g
     id="g3388"
     style="fill:#f37e84;fill-opacity:1"
     transform="translate(-4.1807881,-3.9390076)"><path
       d="m 25.444,4.291 c 0,0 -1.325,1.293 -2.243,2.201 C 18.514,3.068 11.909,3.456 7.676,7.689 c -2.47,2.47 -3.623,5.747 -3.484,8.983 l 4,0 C 8.051,14.46 8.81,12.205 10.5,10.514 c 2.663,-2.663 6.735,-3.043 9.812,-1.162 -1.042,1.032 -2.245,2.238 -2.245,2.238 -0.841,1.009 0.104,1.592 0.584,1.577 l 5.624,-10e-4 c 0.297,0 0.539,10e-4 0.539,10e-4 0,0 0.245,0 0.543,0 l 1.092,0 c 0.298,0 0.54,-0.243 0.54,-0.541 l 0,-7.731 C 27.023,4.188 26.247,3.502 25.444,4.291 Z"
       id="path3390"
       style="fill:#f37e84;fill-opacity:1" /><path
       d="m 6.555,27.709 c 0,0 1.326,-1.293 2.243,-2.201 4.688,3.424 11.292,3.036 15.526,-1.197 2.47,-2.471 3.622,-5.747 3.484,-8.983 l -4.001,0 c 0.142,2.211 -0.617,4.467 -2.308,6.159 -2.663,2.662 -6.735,3.043 -9.812,1.161 1.042,-1.032 2.245,-2.238 2.245,-2.238 0.841,-1.01 -0.104,-1.592 -0.584,-1.577 l -5.624,0.002 c -0.297,0 -0.54,-0.002 -0.54,-0.002 0,0 -0.245,0 -0.543,0 l -1.09,0 c -0.298,0 -0.54,0.242 -0.541,0.541 l 0,7.732 c -0.033,0.706 0.743,1.392 1.545,0.603 z"
       id="path3392"
       style="fill:#f37e84;fill-opacity:1" /></g></svg>